<svg width="48" height="31" viewBox="0 0 48 31" fill="none" xmlns="http://www.w3.org/2000/svg">
<path d="M16.7344 20.7266H7.48828L5.73047 26H0.123047L9.65039 0.40625H14.5371L24.1172 26H18.5098L16.7344 20.7266ZM8.91211 16.4551H15.3105L12.0938 6.875L8.91211 16.4551ZM47.1094 13.7832C47.1094 16.1738 46.7227 18.2539 45.9492 20.0234C45.1758 21.7812 44.1035 23.1934 42.7324 24.2598L46.9863 27.5996L43.6289 30.5703L38.1797 26.1934C37.5586 26.2988 36.9141 26.3516 36.2461 26.3516C34.125 26.3516 32.2324 25.8418 30.5684 24.8223C28.9043 23.8027 27.6152 22.3496 26.7012 20.4629C25.7871 18.5645 25.3242 16.3848 25.3125 13.9238V12.6582C25.3125 10.1387 25.7637 7.92383 26.666 6.01367C27.5801 4.0918 28.8633 2.62109 30.5156 1.60156C32.1797 0.570312 34.0781 0.0546875 36.2109 0.0546875C38.3438 0.0546875 40.2363 0.570312 41.8887 1.60156C43.5527 2.62109 44.8359 4.0918 45.7383 6.01367C46.6523 7.92383 47.1094 10.1328 47.1094 12.6406V13.7832ZM41.7656 12.623C41.7656 9.93945 41.2852 7.90039 40.3242 6.50586C39.3633 5.11133 37.9922 4.41406 36.2109 4.41406C34.4414 4.41406 33.0762 5.10547 32.1152 6.48828C31.1543 7.85938 30.668 9.875 30.6562 12.5352V13.7832C30.6562 16.3965 31.1367 18.4238 32.0977 19.8652C33.0586 21.3066 34.4414 22.0273 36.2461 22.0273C38.0156 22.0273 39.375 21.3359 40.3242 19.9531C41.2734 18.5586 41.7539 16.5312 41.7656 13.8711V12.623Z" fill="#FF0000"/>
</svg>
